<svg width="36" height="36" viewBox="0 0 36 36" fill="none" xmlns="http://www.w3.org/2000/svg">
    <path fill-rule="evenodd" clip-rule="evenodd" d="M9.51472 26.4853C10.1842 27.1547 11.2696 27.1547 11.9391 26.4853L18 20.4244L24.0609 26.4853C24.7304 27.1547 25.8158 27.1547 26.4853 26.4853C27.1547 25.8158 27.1547 24.7304 26.4853 24.0609L20.4244 18L26.4853 11.9391C27.1548 11.2696 27.1548 10.1842 26.4853 9.5147C25.8158 8.84523 24.7304 8.84523 24.0609 9.5147L18 15.5756L11.9391 9.5147C11.2696 8.84523 10.1842 8.84523 9.51472 9.5147C8.84525 10.1842 8.84525 11.2696 9.51472 11.9391L15.5756 18L9.51472 24.0609C8.84525 24.7304 8.84525 25.8158 9.51472 26.4853Z" fill="#222B45"/>
    <mask id="mask0" mask-type="alpha" maskUnits="userSpaceOnUse" x="9" y="9" width="18" height="18">
        <path fill-rule="evenodd" clip-rule="evenodd" d="M9.51472 26.4853C10.1842 27.1547 11.2696 27.1547 11.9391 26.4853L18 20.4244L24.0609 26.4853C24.7304 27.1547 25.8158 27.1547 26.4853 26.4853C27.1547 25.8158 27.1547 24.7304 26.4853 24.0609L20.4244 18L26.4853 11.9391C27.1548 11.2696 27.1548 10.1842 26.4853 9.5147C25.8158 8.84523 24.7304 8.84523 24.0609 9.5147L18 15.5756L11.9391 9.5147C11.2696 8.84523 10.1842 8.84523 9.51472 9.5147C8.84525 10.1842 8.84525 11.2696 9.51472 11.9391L15.5756 18L9.51472 24.0609C8.84525 24.7304 8.84525 25.8158 9.51472 26.4853Z" fill="white"/>
    </mask>
    <g mask="url(#mask0)">
    </g>
</svg>
